<?xml version="1.0" encoding="utf-8"?>
<!-- Generator: Adobe Illustrator 19.0.0, SVG Export Plug-In . SVG Version: 6.00 Build 0)  -->
<svg version="1.1" id="Layer_1" xmlns="http://www.w3.org/2000/svg" xmlns:xlink="http://www.w3.org/1999/xlink" x="0px" y="0px"
	 viewBox="-274 156 13 20" style="enable-background:new -274 156 13 20;" xml:space="preserve">
<style type="text/css">
	.st0{fill:#B2B2B2;}
</style>
<path class="st0" d="M-267.5,176c-0.2,0-0.4-0.1-0.4-0.3l-5.1-10.1c-0.6-1-1-2.1-1-3.3c0-3.5,2.9-6.3,6.5-6.3c3.6,0,6.5,2.8,6.5,6.3
	c0,1.2-0.3,2.3-1,3.4l-5.1,10.1C-267.1,175.9-267.3,176-267.5,176z M-267.5,157c-3,0-5.5,2.4-5.5,5.4c0,1,0.3,2,0.8,2.8l4.7,9.3
	l4.6-9.2c0.6-0.9,0.9-1.9,0.9-2.9C-262,159.4-264.5,157-267.5,157z M-267.5,164.8c-1.5,0-2.7-1.2-2.7-2.6c0-1.4,1.2-2.6,2.7-2.6
	c1.5,0,2.7,1.2,2.7,2.6C-264.8,163.6-266,164.8-267.5,164.8z M-267.5,160.6c-0.9,0-1.7,0.7-1.7,1.6c0,0.9,0.8,1.6,1.7,1.6
	s1.7-0.7,1.7-1.6C-265.8,161.3-266.6,160.6-267.5,160.6z"/>
</svg>
