<?xml version="1.0" encoding="utf-8"?>
<!-- Generator: Adobe Illustrator 19.0.0, SVG Export Plug-In . SVG Version: 6.00 Build 0)  -->
<svg version="1.1" id="Layer_1" xmlns="http://www.w3.org/2000/svg" xmlns:xlink="http://www.w3.org/1999/xlink" x="0px" y="0px"
	 viewBox="-270 156 20.1 20" style="enable-background:new -270 156 20.1 20;" xml:space="preserve">
<style type="text/css">
	.st0{fill:#B2B2B2;}
</style>
<path class="st0" d="M-259.9,176c-5.5,0-10.1-4.5-10.1-10c0-5.5,4.5-10,10.1-10c5.5,0,10.1,4.5,10.1,10
	C-249.9,171.5-254.4,176-259.9,176z M-259.9,157c-5,0-9,4-9,9c0,5,4.1,9,9,9c5,0,9.1-4,9.1-9C-250.9,161-254.9,157-259.9,157z
	 M-252.3,166.6c-0.3,0-0.6-0.3-0.6-0.6c0-0.3,0.3-0.6,0.6-0.6c0.3,0,0.6,0.3,0.6,0.6C-251.7,166.3-251.9,166.6-252.3,166.6z
	 M-253,162.7c-0.3,0.2-0.7,0.1-0.9-0.2c-0.2-0.3-0.1-0.7,0.2-0.9c0.3-0.2,0.7-0.1,0.9,0.2C-252.6,162.1-252.7,162.5-253,162.7z
	 M-253,169.2c0.3,0.2,0.4,0.6,0.2,0.9c-0.2,0.3-0.6,0.4-0.9,0.2c-0.3-0.2-0.4-0.6-0.2-0.9C-253.7,169.2-253.3,169.1-253,169.2z
	 M-255.8,173.1c-0.3,0.2-0.7,0.1-0.9-0.2c-0.2-0.3-0.1-0.7,0.2-0.9c0.3-0.2,0.7-0.1,0.9,0.2C-255.4,172.6-255.5,173-255.8,173.1z
	 M-256.4,159.9c-0.3-0.2-0.4-0.6-0.2-0.9c0.2-0.3,0.6-0.4,0.9-0.2c0.3,0.2,0.4,0.6,0.2,0.9C-255.8,160-256.1,160.1-256.4,159.9z
	 M-263,170c-0.1,0-0.2,0-0.3-0.1c-0.2-0.2-0.2-0.5,0-0.7l3.1-3.4v-4.7c0-0.3,0.2-0.5,0.5-0.5c0.3,0,0.5,0.2,0.5,0.5v5.1l-3.4,3.7
	C-262.7,170-262.9,170-263,170z M-260,158.9c-0.3,0-0.6-0.3-0.6-0.6c0-0.3,0.3-0.6,0.6-0.6c0.3,0,0.6,0.3,0.6,0.6
	C-259.4,158.7-259.6,158.9-260,158.9z M-263.5,159.9c-0.3,0.2-0.7,0.1-0.9-0.2c-0.2-0.3-0.1-0.7,0.2-0.9c0.3-0.2,0.7-0.1,0.9,0.2
	C-263.1,159.3-263.2,159.7-263.5,159.9z M-266.4,170.4c-0.3,0.2-0.7,0.1-0.9-0.2c-0.2-0.3-0.1-0.7,0.2-0.9c0.3-0.2,0.7-0.1,0.9,0.2
	C-266,169.8-266.1,170.2-266.4,170.4z M-267,162.7c-0.3-0.2-0.4-0.6-0.2-0.9c0.2-0.3,0.6-0.4,0.9-0.2c0.3,0.2,0.4,0.6,0.2,0.9
	C-266.3,162.8-266.7,162.9-267,162.7z M-267.1,166c0,0.3-0.3,0.6-0.6,0.6c-0.3,0-0.6-0.3-0.6-0.6c0-0.3,0.3-0.6,0.6-0.6
	C-267.4,165.4-267.1,165.7-267.1,166z M-263.5,172.1c0.3,0.2,0.4,0.6,0.2,0.9c-0.2,0.3-0.6,0.4-0.9,0.2c-0.3-0.2-0.4-0.6-0.2-0.9
	C-264.2,172-263.8,171.9-263.5,172.1z M-260,173c0.3,0,0.6,0.3,0.6,0.6c0,0.3-0.3,0.6-0.6,0.6c-0.3,0-0.6-0.3-0.6-0.6
	C-260.6,173.3-260.3,173-260,173z"/>
</svg>
